<svg xmlns="http://www.w3.org/2000/svg" viewBox="0 0 512 512">
  <defs>
    <linearGradient id="bg" x1="0" y1="0" x2="1" y2="1">
      <stop offset="0%" stop-color="#2563eb"/>
      <stop offset="100%" stop-color="#1d4ed8"/>
    </linearGradient>
  </defs>
  <!-- Background circle -->
  <circle cx="256" cy="256" r="240" fill="url(#bg)" />
  <!-- Monitor -->
  <rect x="96" y="96" width="320" height="240" rx="16" ry="16" fill="#1e293b" stroke="#e2e8f0" stroke-width="8"/>
  <rect x="112" y="112" width="288" height="208" rx="4" ry="4" fill="#0f172a"/>
  <!-- Screen glow -->
  <rect x="116" y="116" width="280" height="200" rx="2" ry="2" fill="#1e293b"/>
  <!-- Desktop pattern -->
  <rect x="136" y="136" width="140" height="100" rx="4" ry="4" fill="#334155"/>
  <rect x="296" y="136" width="80" height="60" rx="4" ry="4" fill="#334155"/>
  <rect x="136" y="252" width="240" height="48" rx="4" ry="4" fill="#334155"/>
  <!-- Stand -->
  <rect x="216" y="336" width="80" height="32" rx="4" ry="4" fill="#e2e8f0"/>
  <rect x="196" y="368" width="120" height="12" rx="6" ry="6" fill="#cbd5e1"/>
  <!-- Connection arrows -->
  <path d="M 400 200 Q 440 256 400 312" fill="none" stroke="#22c55e" stroke-width="6" stroke-linecap="round"/>
  <polygon points="400,200 392,216 408,216" fill="#22c55e"/>
  <polygon points="400,312 392,296 408,296" fill="#22c55e"/>
</svg>
